<?xml version="1.0" encoding="UTF-8"?>
<svg viewBox="0 0 60 60" xmlns="http://www.w3.org/2000/svg">
 <path d="m0 0v38l12-5c-0.409-5.178-5.4122-18.287-2.2261-22.486 4.8461-6.3865 25.333-4.0119 32.226-2.9237 2.882 0.4549 7.309 0.6822 8.799 3.6877 2.324 4.692-2.134 16.466-2.799 21.722l12 5v-38h-60z" fill="#fdfdfd"/>
 <path d="m12 33c-10.144 1.499-16.108 9.14-4.9992 15.637 8.9772 5.249 20.837 6.397 30.999 5.074 6.327-0.825 13.999-2.748 18.772-7.24 7.753-7.297-2.016-12.458-8.772-13.471 0.904-4.852 5.625-18.34 2.933-22.486-4.19-6.4527-26.391-4.0256-32.933-3.0858-2.671 0.3838-7.289 0.4908-8.8827 3.0858-2.701 4.399 2.2337 17.357 2.8827 22.486z" fill="#030303"/>
 <path d="m12 35c1.172 15.506 35.121 16.003 36 0-11.684 5.484-24.316 5.484-36 0m-12 8v17h60v-17c-18.437 15.937-41.088 12.877-60 0z" fill="#fdfdfd"/>
</svg>
